<mxfile host="app.diagrams.net" modified="2024-01-12T07:31:50.297Z" agent="Mozilla/5.0 (Windows NT 10.0; Win64; x64) AppleWebKit/537.36 (KHTML, like Gecko) Chrome/120.0.0.0 Safari/537.36" etag="CwRqwutcb5ImG2ufi3M0" version="22.1.18" type="device">
  <diagram name="페이지-1" id="5g-hJykp7BCFSY2R_P9K">
    <mxGraphModel dx="3088" dy="738" grid="1" gridSize="10" guides="1" tooltips="1" connect="1" arrows="1" fold="1" page="1" pageScale="1" pageWidth="1654" pageHeight="2336" math="0" shadow="0">
      <root>
        <mxCell id="0" />
        <mxCell id="1" parent="0" />
        <mxCell id="xfH-aFisu_lI2zTOAwG_-1" value="과목" style="rounded=1;arcSize=10;whiteSpace=wrap;html=1;align=center;" vertex="1" parent="1">
          <mxGeometry x="335" y="210" width="165" height="50" as="geometry" />
        </mxCell>
        <mxCell id="xfH-aFisu_lI2zTOAwG_-2" value="과목번호" style="ellipse;whiteSpace=wrap;html=1;align=center;fontStyle=4;" vertex="1" parent="1">
          <mxGeometry x="220" y="360" width="90" height="40" as="geometry" />
        </mxCell>
        <mxCell id="xfH-aFisu_lI2zTOAwG_-3" value="과목명명" style="ellipse;whiteSpace=wrap;html=1;align=center;" vertex="1" parent="1">
          <mxGeometry x="320" y="360" width="90" height="40" as="geometry" />
        </mxCell>
        <mxCell id="xfH-aFisu_lI2zTOAwG_-4" value="담당교수" style="ellipse;whiteSpace=wrap;html=1;align=center;" vertex="1" parent="1">
          <mxGeometry x="410" y="360" width="90" height="40" as="geometry" />
        </mxCell>
        <mxCell id="xfH-aFisu_lI2zTOAwG_-5" value="강의실" style="ellipse;whiteSpace=wrap;html=1;align=center;" vertex="1" parent="1">
          <mxGeometry x="505" y="360" width="90" height="40" as="geometry" />
        </mxCell>
        <mxCell id="xfH-aFisu_lI2zTOAwG_-10" value="" style="endArrow=classic;html=1;rounded=0;entryX=0.593;entryY=-0.067;entryDx=0;entryDy=0;entryPerimeter=0;exitX=0.68;exitY=1.063;exitDx=0;exitDy=0;exitPerimeter=0;" edge="1" parent="1" source="xfH-aFisu_lI2zTOAwG_-1" target="xfH-aFisu_lI2zTOAwG_-4">
          <mxGeometry width="50" height="50" relative="1" as="geometry">
            <mxPoint x="465.7142857142858" y="270" as="sourcePoint" />
            <mxPoint x="420" y="350" as="targetPoint" />
          </mxGeometry>
        </mxCell>
        <mxCell id="xfH-aFisu_lI2zTOAwG_-11" value="" style="endArrow=classic;html=1;rounded=0;entryX=0.556;entryY=0;entryDx=0;entryDy=0;entryPerimeter=0;" edge="1" parent="1" target="xfH-aFisu_lI2zTOAwG_-2">
          <mxGeometry width="50" height="50" relative="1" as="geometry">
            <mxPoint x="340.0042857142858" y="260" as="sourcePoint" />
            <mxPoint x="294.29" y="340" as="targetPoint" />
          </mxGeometry>
        </mxCell>
        <mxCell id="xfH-aFisu_lI2zTOAwG_-12" value="" style="endArrow=classic;html=1;rounded=0;entryX=0.641;entryY=-0.058;entryDx=0;entryDy=0;entryPerimeter=0;exitX=0.772;exitY=1.08;exitDx=0;exitDy=0;exitPerimeter=0;" edge="1" parent="1" source="xfH-aFisu_lI2zTOAwG_-1" target="xfH-aFisu_lI2zTOAwG_-5">
          <mxGeometry width="50" height="50" relative="1" as="geometry">
            <mxPoint x="550.7142857142858" y="270" as="sourcePoint" />
            <mxPoint x="505" y="350" as="targetPoint" />
          </mxGeometry>
        </mxCell>
        <mxCell id="xfH-aFisu_lI2zTOAwG_-26" value="학생" style="rounded=1;arcSize=10;whiteSpace=wrap;html=1;align=center;" vertex="1" parent="1">
          <mxGeometry x="-155" y="210" width="240" height="50" as="geometry" />
        </mxCell>
        <mxCell id="xfH-aFisu_lI2zTOAwG_-27" value="학번" style="ellipse;whiteSpace=wrap;html=1;align=center;fontStyle=4;" vertex="1" parent="1">
          <mxGeometry x="-270" y="360" width="90" height="40" as="geometry" />
        </mxCell>
        <mxCell id="xfH-aFisu_lI2zTOAwG_-28" value="이름" style="ellipse;whiteSpace=wrap;html=1;align=center;" vertex="1" parent="1">
          <mxGeometry x="-170" y="360" width="90" height="40" as="geometry" />
        </mxCell>
        <mxCell id="xfH-aFisu_lI2zTOAwG_-29" value="학과" style="ellipse;whiteSpace=wrap;html=1;align=center;" vertex="1" parent="1">
          <mxGeometry x="-80" y="360" width="90" height="40" as="geometry" />
        </mxCell>
        <mxCell id="xfH-aFisu_lI2zTOAwG_-30" value="학년" style="ellipse;whiteSpace=wrap;html=1;align=center;" vertex="1" parent="1">
          <mxGeometry x="15" y="360" width="90" height="40" as="geometry" />
        </mxCell>
        <mxCell id="xfH-aFisu_lI2zTOAwG_-31" value="전화번호" style="ellipse;whiteSpace=wrap;html=1;align=center;" vertex="1" parent="1">
          <mxGeometry x="110" y="360" width="90" height="40" as="geometry" />
        </mxCell>
        <mxCell id="xfH-aFisu_lI2zTOAwG_-32" value="" style="endArrow=classic;html=1;rounded=0;" edge="1" parent="1">
          <mxGeometry width="50" height="50" relative="1" as="geometry">
            <mxPoint x="-64.28571428571422" y="270" as="sourcePoint" />
            <mxPoint x="-110" y="350" as="targetPoint" />
          </mxGeometry>
        </mxCell>
        <mxCell id="xfH-aFisu_lI2zTOAwG_-33" value="" style="endArrow=classic;html=1;rounded=0;entryX=0.593;entryY=-0.067;entryDx=0;entryDy=0;entryPerimeter=0;" edge="1" parent="1" target="xfH-aFisu_lI2zTOAwG_-29">
          <mxGeometry width="50" height="50" relative="1" as="geometry">
            <mxPoint x="-24.28571428571422" y="270" as="sourcePoint" />
            <mxPoint x="-70" y="350" as="targetPoint" />
          </mxGeometry>
        </mxCell>
        <mxCell id="xfH-aFisu_lI2zTOAwG_-34" value="" style="endArrow=classic;html=1;rounded=0;entryX=0.556;entryY=0;entryDx=0;entryDy=0;entryPerimeter=0;" edge="1" parent="1" target="xfH-aFisu_lI2zTOAwG_-27">
          <mxGeometry width="50" height="50" relative="1" as="geometry">
            <mxPoint x="-149.9957142857142" y="260" as="sourcePoint" />
            <mxPoint x="-195.70999999999998" y="340" as="targetPoint" />
          </mxGeometry>
        </mxCell>
        <mxCell id="xfH-aFisu_lI2zTOAwG_-35" value="" style="endArrow=classic;html=1;rounded=0;entryX=0.641;entryY=-0.058;entryDx=0;entryDy=0;entryPerimeter=0;exitX=0.772;exitY=1.08;exitDx=0;exitDy=0;exitPerimeter=0;" edge="1" parent="1" source="xfH-aFisu_lI2zTOAwG_-26" target="xfH-aFisu_lI2zTOAwG_-30">
          <mxGeometry width="50" height="50" relative="1" as="geometry">
            <mxPoint x="60.71428571428578" y="270" as="sourcePoint" />
            <mxPoint x="15" y="350" as="targetPoint" />
          </mxGeometry>
        </mxCell>
        <mxCell id="xfH-aFisu_lI2zTOAwG_-36" value="" style="endArrow=classic;html=1;rounded=0;entryX=0.663;entryY=-0.058;entryDx=0;entryDy=0;entryPerimeter=0;exitX=1.014;exitY=0.767;exitDx=0;exitDy=0;exitPerimeter=0;" edge="1" parent="1" source="xfH-aFisu_lI2zTOAwG_-26" target="xfH-aFisu_lI2zTOAwG_-31">
          <mxGeometry width="50" height="50" relative="1" as="geometry">
            <mxPoint x="125.71428571428578" y="250" as="sourcePoint" />
            <mxPoint x="80" y="330" as="targetPoint" />
          </mxGeometry>
        </mxCell>
        <mxCell id="xfH-aFisu_lI2zTOAwG_-37" value="수강신청" style="shape=rhombus;perimeter=rhombusPerimeter;whiteSpace=wrap;html=1;align=center;" vertex="1" parent="1">
          <mxGeometry x="120" y="90" width="120" height="60" as="geometry" />
        </mxCell>
        <mxCell id="xfH-aFisu_lI2zTOAwG_-38" value="" style="endArrow=classic;html=1;rounded=0;entryX=0.556;entryY=0;entryDx=0;entryDy=0;entryPerimeter=0;" edge="1" parent="1">
          <mxGeometry width="50" height="50" relative="1" as="geometry">
            <mxPoint x="410.0042857142858" y="260" as="sourcePoint" />
            <mxPoint x="340" y="360" as="targetPoint" />
          </mxGeometry>
        </mxCell>
        <mxCell id="xfH-aFisu_lI2zTOAwG_-39" value="" style="endArrow=classic;html=1;rounded=0;entryX=0.313;entryY=-0.034;entryDx=0;entryDy=0;entryPerimeter=0;" edge="1" parent="1" source="xfH-aFisu_lI2zTOAwG_-37" target="xfH-aFisu_lI2zTOAwG_-1">
          <mxGeometry width="50" height="50" relative="1" as="geometry">
            <mxPoint x="240" y="140" as="sourcePoint" />
            <mxPoint x="380" y="120" as="targetPoint" />
            <Array as="points">
              <mxPoint x="387" y="120" />
            </Array>
          </mxGeometry>
        </mxCell>
        <mxCell id="xfH-aFisu_lI2zTOAwG_-40" value="" style="endArrow=classic;html=1;rounded=0;" edge="1" parent="1">
          <mxGeometry width="50" height="50" relative="1" as="geometry">
            <mxPoint x="110" y="110" as="sourcePoint" />
            <mxPoint x="-30" y="200" as="targetPoint" />
            <Array as="points">
              <mxPoint x="-30" y="110" />
            </Array>
          </mxGeometry>
        </mxCell>
        <mxCell id="xfH-aFisu_lI2zTOAwG_-52" value="" style="edgeStyle=orthogonalEdgeStyle;rounded=0;orthogonalLoop=1;jettySize=auto;html=1;" edge="1" parent="1" source="xfH-aFisu_lI2zTOAwG_-43">
          <mxGeometry relative="1" as="geometry">
            <mxPoint x="-660" y="1190" as="targetPoint" />
          </mxGeometry>
        </mxCell>
        <mxCell id="xfH-aFisu_lI2zTOAwG_-53" style="edgeStyle=orthogonalEdgeStyle;rounded=0;orthogonalLoop=1;jettySize=auto;html=1;" edge="1" parent="1" source="xfH-aFisu_lI2zTOAwG_-43">
          <mxGeometry relative="1" as="geometry">
            <mxPoint x="-920" y="1190" as="targetPoint" />
          </mxGeometry>
        </mxCell>
        <mxCell id="xfH-aFisu_lI2zTOAwG_-55" style="edgeStyle=orthogonalEdgeStyle;rounded=0;orthogonalLoop=1;jettySize=auto;html=1;" edge="1" parent="1" source="xfH-aFisu_lI2zTOAwG_-43" target="xfH-aFisu_lI2zTOAwG_-162">
          <mxGeometry relative="1" as="geometry">
            <mxPoint x="-120" y="1190" as="targetPoint" />
          </mxGeometry>
        </mxCell>
        <mxCell id="xfH-aFisu_lI2zTOAwG_-56" style="edgeStyle=orthogonalEdgeStyle;rounded=0;orthogonalLoop=1;jettySize=auto;html=1;exitX=0;exitY=0.5;exitDx=0;exitDy=0;" edge="1" parent="1" source="xfH-aFisu_lI2zTOAwG_-43">
          <mxGeometry relative="1" as="geometry">
            <mxPoint x="-1200" y="1180" as="targetPoint" />
            <Array as="points">
              <mxPoint x="-1200" y="1135" />
            </Array>
          </mxGeometry>
        </mxCell>
        <mxCell id="xfH-aFisu_lI2zTOAwG_-43" value="Relationship" style="shape=rhombus;perimeter=rhombusPerimeter;whiteSpace=wrap;html=1;align=center;" vertex="1" parent="1">
          <mxGeometry x="-720" y="1110" width="120" height="50" as="geometry" />
        </mxCell>
        <mxCell id="xfH-aFisu_lI2zTOAwG_-51" style="edgeStyle=orthogonalEdgeStyle;rounded=0;orthogonalLoop=1;jettySize=auto;html=1;exitX=0.5;exitY=1;exitDx=0;exitDy=0;entryX=0.5;entryY=0;entryDx=0;entryDy=0;" edge="1" parent="1" source="xfH-aFisu_lI2zTOAwG_-44" target="xfH-aFisu_lI2zTOAwG_-43">
          <mxGeometry relative="1" as="geometry" />
        </mxCell>
        <mxCell id="xfH-aFisu_lI2zTOAwG_-44" value="동물 메뉴" style="rounded=1;arcSize=10;whiteSpace=wrap;html=1;align=center;" vertex="1" parent="1">
          <mxGeometry x="-710" y="1020" width="100" height="40" as="geometry" />
        </mxCell>
        <mxCell id="xfH-aFisu_lI2zTOAwG_-57" style="edgeStyle=orthogonalEdgeStyle;rounded=0;orthogonalLoop=1;jettySize=auto;html=1;entryX=0.5;entryY=0;entryDx=0;entryDy=0;" edge="1" parent="1" source="xfH-aFisu_lI2zTOAwG_-45" target="xfH-aFisu_lI2zTOAwG_-44">
          <mxGeometry relative="1" as="geometry" />
        </mxCell>
        <mxCell id="xfH-aFisu_lI2zTOAwG_-58" style="edgeStyle=orthogonalEdgeStyle;rounded=0;orthogonalLoop=1;jettySize=auto;html=1;" edge="1" parent="1" source="xfH-aFisu_lI2zTOAwG_-45">
          <mxGeometry relative="1" as="geometry">
            <mxPoint x="-660" y="810" as="targetPoint" />
          </mxGeometry>
        </mxCell>
        <mxCell id="xfH-aFisu_lI2zTOAwG_-112" style="edgeStyle=orthogonalEdgeStyle;rounded=0;orthogonalLoop=1;jettySize=auto;html=1;entryX=0.5;entryY=1;entryDx=0;entryDy=0;" edge="1" parent="1" source="xfH-aFisu_lI2zTOAwG_-45" target="xfH-aFisu_lI2zTOAwG_-118">
          <mxGeometry relative="1" as="geometry">
            <mxPoint x="254" y="910" as="targetPoint" />
          </mxGeometry>
        </mxCell>
        <mxCell id="xfH-aFisu_lI2zTOAwG_-113" style="edgeStyle=orthogonalEdgeStyle;rounded=0;orthogonalLoop=1;jettySize=auto;html=1;entryX=0.5;entryY=1;entryDx=0;entryDy=0;" edge="1" parent="1" source="xfH-aFisu_lI2zTOAwG_-45" target="xfH-aFisu_lI2zTOAwG_-115">
          <mxGeometry relative="1" as="geometry">
            <mxPoint x="-430" y="830" as="targetPoint" />
          </mxGeometry>
        </mxCell>
        <mxCell id="xfH-aFisu_lI2zTOAwG_-119" style="edgeStyle=orthogonalEdgeStyle;rounded=0;orthogonalLoop=1;jettySize=auto;html=1;entryX=0.5;entryY=1;entryDx=0;entryDy=0;" edge="1" parent="1" source="xfH-aFisu_lI2zTOAwG_-45" target="xfH-aFisu_lI2zTOAwG_-116">
          <mxGeometry relative="1" as="geometry" />
        </mxCell>
        <mxCell id="xfH-aFisu_lI2zTOAwG_-120" style="edgeStyle=orthogonalEdgeStyle;rounded=0;orthogonalLoop=1;jettySize=auto;html=1;entryX=0.5;entryY=1;entryDx=0;entryDy=0;" edge="1" parent="1" source="xfH-aFisu_lI2zTOAwG_-45" target="xfH-aFisu_lI2zTOAwG_-117">
          <mxGeometry relative="1" as="geometry" />
        </mxCell>
        <mxCell id="xfH-aFisu_lI2zTOAwG_-45" value="Relationship" style="shape=rhombus;perimeter=rhombusPerimeter;whiteSpace=wrap;html=1;align=center;" vertex="1" parent="1">
          <mxGeometry x="-720" y="880" width="120" height="60" as="geometry" />
        </mxCell>
        <mxCell id="xfH-aFisu_lI2zTOAwG_-64" style="edgeStyle=orthogonalEdgeStyle;rounded=0;orthogonalLoop=1;jettySize=auto;html=1;" edge="1" parent="1">
          <mxGeometry relative="1" as="geometry">
            <mxPoint x="-1200" y="1320" as="sourcePoint" />
            <mxPoint x="-1200" y="1480" as="targetPoint" />
          </mxGeometry>
        </mxCell>
        <mxCell id="xfH-aFisu_lI2zTOAwG_-66" style="rounded=0;orthogonalLoop=1;jettySize=auto;html=1;" edge="1" parent="1">
          <mxGeometry relative="1" as="geometry">
            <mxPoint x="-1184.7792024287976" y="1320" as="sourcePoint" />
            <mxPoint x="-1123.3439541490693" y="1400.7253995624556" as="targetPoint" />
          </mxGeometry>
        </mxCell>
        <mxCell id="xfH-aFisu_lI2zTOAwG_-54" style="edgeStyle=orthogonalEdgeStyle;rounded=0;orthogonalLoop=1;jettySize=auto;html=1;" edge="1" parent="1" source="xfH-aFisu_lI2zTOAwG_-43">
          <mxGeometry relative="1" as="geometry">
            <mxPoint x="-390" y="1200" as="targetPoint" />
          </mxGeometry>
        </mxCell>
        <mxCell id="xfH-aFisu_lI2zTOAwG_-65" style="rounded=0;orthogonalLoop=1;jettySize=auto;html=1;entryX=0.77;entryY=0.05;entryDx=0;entryDy=0;entryPerimeter=0;" edge="1" parent="1">
          <mxGeometry relative="1" as="geometry">
            <mxPoint x="-1214.313725490196" y="1320" as="sourcePoint" />
            <mxPoint x="-1273" y="1402" as="targetPoint" />
          </mxGeometry>
        </mxCell>
        <mxCell id="xfH-aFisu_lI2zTOAwG_-67" style="edgeStyle=orthogonalEdgeStyle;rounded=0;orthogonalLoop=1;jettySize=auto;html=1;" edge="1" parent="1">
          <mxGeometry relative="1" as="geometry">
            <mxPoint x="-895" y="1310" as="sourcePoint" />
            <mxPoint x="-910" y="1480" as="targetPoint" />
            <Array as="points">
              <mxPoint x="-910" y="1310" />
            </Array>
          </mxGeometry>
        </mxCell>
        <mxCell id="xfH-aFisu_lI2zTOAwG_-68" style="rounded=0;orthogonalLoop=1;jettySize=auto;html=1;exitX=0.82;exitY=1.05;exitDx=0;exitDy=0;exitPerimeter=0;" edge="1" parent="1">
          <mxGeometry relative="1" as="geometry">
            <mxPoint x="-888" y="1312" as="sourcePoint" />
            <mxPoint x="-847.4170226464557" y="1420.2212729427847" as="targetPoint" />
            <Array as="points" />
          </mxGeometry>
        </mxCell>
        <mxCell id="xfH-aFisu_lI2zTOAwG_-72" style="rounded=0;orthogonalLoop=1;jettySize=auto;html=1;entryX=0.77;entryY=0.05;entryDx=0;entryDy=0;entryPerimeter=0;exitX=0.37;exitY=0.975;exitDx=0;exitDy=0;exitPerimeter=0;" edge="1" parent="1">
          <mxGeometry relative="1" as="geometry">
            <mxPoint x="-933" y="1309" as="sourcePoint" />
            <mxPoint x="-973" y="1412" as="targetPoint" />
          </mxGeometry>
        </mxCell>
        <mxCell id="xfH-aFisu_lI2zTOAwG_-73" style="edgeStyle=orthogonalEdgeStyle;rounded=0;orthogonalLoop=1;jettySize=auto;html=1;" edge="1" parent="1">
          <mxGeometry relative="1" as="geometry">
            <mxPoint x="-660" y="1310" as="sourcePoint" />
            <mxPoint x="-660" y="1480" as="targetPoint" />
          </mxGeometry>
        </mxCell>
        <mxCell id="xfH-aFisu_lI2zTOAwG_-74" style="rounded=0;orthogonalLoop=1;jettySize=auto;html=1;" edge="1" parent="1">
          <mxGeometry relative="1" as="geometry">
            <mxPoint x="-646" y="1310" as="sourcePoint" />
            <mxPoint x="-599.9770562455169" y="1400.4022109463067" as="targetPoint" />
          </mxGeometry>
        </mxCell>
        <mxCell id="xfH-aFisu_lI2zTOAwG_-78" style="rounded=0;orthogonalLoop=1;jettySize=auto;html=1;entryX=0.77;entryY=0.05;entryDx=0;entryDy=0;entryPerimeter=0;" edge="1" parent="1">
          <mxGeometry relative="1" as="geometry">
            <mxPoint x="-669" y="1310" as="sourcePoint" />
            <mxPoint x="-713" y="1402" as="targetPoint" />
          </mxGeometry>
        </mxCell>
        <mxCell id="xfH-aFisu_lI2zTOAwG_-79" style="edgeStyle=orthogonalEdgeStyle;rounded=0;orthogonalLoop=1;jettySize=auto;html=1;" edge="1" parent="1">
          <mxGeometry relative="1" as="geometry">
            <mxPoint x="-390" y="1310" as="sourcePoint" />
            <mxPoint x="-390" y="1480" as="targetPoint" />
          </mxGeometry>
        </mxCell>
        <mxCell id="xfH-aFisu_lI2zTOAwG_-80" style="rounded=0;orthogonalLoop=1;jettySize=auto;html=1;" edge="1" parent="1">
          <mxGeometry relative="1" as="geometry">
            <mxPoint x="-376" y="1310" as="sourcePoint" />
            <mxPoint x="-329.9770562455169" y="1400.4022109463058" as="targetPoint" />
          </mxGeometry>
        </mxCell>
        <mxCell id="xfH-aFisu_lI2zTOAwG_-84" style="rounded=0;orthogonalLoop=1;jettySize=auto;html=1;entryX=0.77;entryY=0.05;entryDx=0;entryDy=0;entryPerimeter=0;" edge="1" parent="1">
          <mxGeometry relative="1" as="geometry">
            <mxPoint x="-399" y="1310" as="sourcePoint" />
            <mxPoint x="-443" y="1402" as="targetPoint" />
          </mxGeometry>
        </mxCell>
        <mxCell id="xfH-aFisu_lI2zTOAwG_-85" style="edgeStyle=orthogonalEdgeStyle;rounded=0;orthogonalLoop=1;jettySize=auto;html=1;" edge="1" parent="1">
          <mxGeometry relative="1" as="geometry">
            <mxPoint x="-120" y="1310" as="sourcePoint" />
            <mxPoint x="-120" y="1480" as="targetPoint" />
          </mxGeometry>
        </mxCell>
        <mxCell id="xfH-aFisu_lI2zTOAwG_-86" style="rounded=0;orthogonalLoop=1;jettySize=auto;html=1;" edge="1" parent="1">
          <mxGeometry relative="1" as="geometry">
            <mxPoint x="-106" y="1310" as="sourcePoint" />
            <mxPoint x="-59.977056245454605" y="1400.4022109464286" as="targetPoint" />
          </mxGeometry>
        </mxCell>
        <mxCell id="xfH-aFisu_lI2zTOAwG_-90" style="rounded=0;orthogonalLoop=1;jettySize=auto;html=1;entryX=0.77;entryY=0.05;entryDx=0;entryDy=0;entryPerimeter=0;" edge="1" parent="1">
          <mxGeometry relative="1" as="geometry">
            <mxPoint x="-129" y="1310" as="sourcePoint" />
            <mxPoint x="-173" y="1402" as="targetPoint" />
          </mxGeometry>
        </mxCell>
        <mxCell id="xfH-aFisu_lI2zTOAwG_-110" style="edgeStyle=orthogonalEdgeStyle;rounded=0;orthogonalLoop=1;jettySize=auto;html=1;" edge="1" parent="1" source="xfH-aFisu_lI2zTOAwG_-91" target="xfH-aFisu_lI2zTOAwG_-108">
          <mxGeometry relative="1" as="geometry" />
        </mxCell>
        <mxCell id="xfH-aFisu_lI2zTOAwG_-111" style="edgeStyle=orthogonalEdgeStyle;rounded=0;orthogonalLoop=1;jettySize=auto;html=1;entryX=1;entryY=0.5;entryDx=0;entryDy=0;" edge="1" parent="1" source="xfH-aFisu_lI2zTOAwG_-91" target="xfH-aFisu_lI2zTOAwG_-107">
          <mxGeometry relative="1" as="geometry">
            <mxPoint x="-660" y="600" as="targetPoint" />
          </mxGeometry>
        </mxCell>
        <mxCell id="xfH-aFisu_lI2zTOAwG_-91" value="홈" style="rounded=1;arcSize=10;whiteSpace=wrap;html=1;align=center;" vertex="1" parent="1">
          <mxGeometry x="-710" y="770" width="100" height="40" as="geometry" />
        </mxCell>
        <mxCell id="xfH-aFisu_lI2zTOAwG_-92" value="기니피그" style="ellipse;whiteSpace=wrap;html=1;align=center;" vertex="1" parent="1">
          <mxGeometry x="-1350" y="1400" width="100" height="40" as="geometry" />
        </mxCell>
        <mxCell id="xfH-aFisu_lI2zTOAwG_-93" value="친칠라" style="ellipse;whiteSpace=wrap;html=1;align=center;" vertex="1" parent="1">
          <mxGeometry x="-1250" y="1480" width="100" height="40" as="geometry" />
        </mxCell>
        <mxCell id="xfH-aFisu_lI2zTOAwG_-94" value="햄스터" style="ellipse;whiteSpace=wrap;html=1;align=center;" vertex="1" parent="1">
          <mxGeometry x="-1160" y="1400" width="100" height="40" as="geometry" />
        </mxCell>
        <mxCell id="xfH-aFisu_lI2zTOAwG_-95" value="금붕어" style="ellipse;whiteSpace=wrap;html=1;align=center;" vertex="1" parent="1">
          <mxGeometry x="-1030" y="1410" width="100" height="40" as="geometry" />
        </mxCell>
        <mxCell id="xfH-aFisu_lI2zTOAwG_-96" value="네온테트라" style="ellipse;whiteSpace=wrap;html=1;align=center;" vertex="1" parent="1">
          <mxGeometry x="-960" y="1480" width="100" height="40" as="geometry" />
        </mxCell>
        <mxCell id="xfH-aFisu_lI2zTOAwG_-97" value="구피" style="ellipse;whiteSpace=wrap;html=1;align=center;" vertex="1" parent="1">
          <mxGeometry x="-890" y="1420" width="100" height="40" as="geometry" />
        </mxCell>
        <mxCell id="xfH-aFisu_lI2zTOAwG_-98" value="카나리아" style="ellipse;whiteSpace=wrap;html=1;align=center;" vertex="1" parent="1">
          <mxGeometry x="-780" y="1400" width="100" height="40" as="geometry" />
        </mxCell>
        <mxCell id="xfH-aFisu_lI2zTOAwG_-99" value="십자매" style="ellipse;whiteSpace=wrap;html=1;align=center;" vertex="1" parent="1">
          <mxGeometry x="-710" y="1480" width="100" height="40" as="geometry" />
        </mxCell>
        <mxCell id="xfH-aFisu_lI2zTOAwG_-100" value="앵무새" style="ellipse;whiteSpace=wrap;html=1;align=center;" vertex="1" parent="1">
          <mxGeometry x="-640" y="1400" width="100" height="40" as="geometry" />
        </mxCell>
        <mxCell id="xfH-aFisu_lI2zTOAwG_-101" value="뱀" style="ellipse;whiteSpace=wrap;html=1;align=center;" vertex="1" parent="1">
          <mxGeometry x="-510" y="1400" width="100" height="40" as="geometry" />
        </mxCell>
        <mxCell id="xfH-aFisu_lI2zTOAwG_-102" value="거북이" style="ellipse;whiteSpace=wrap;html=1;align=center;" vertex="1" parent="1">
          <mxGeometry x="-440" y="1480" width="100" height="40" as="geometry" />
        </mxCell>
        <mxCell id="xfH-aFisu_lI2zTOAwG_-103" value="도마뱀" style="ellipse;whiteSpace=wrap;html=1;align=center;" vertex="1" parent="1">
          <mxGeometry x="-370" y="1400" width="100" height="40" as="geometry" />
        </mxCell>
        <mxCell id="xfH-aFisu_lI2zTOAwG_-104" value="라쿤" style="ellipse;whiteSpace=wrap;html=1;align=center;" vertex="1" parent="1">
          <mxGeometry x="-245" y="1400" width="100" height="40" as="geometry" />
        </mxCell>
        <mxCell id="xfH-aFisu_lI2zTOAwG_-105" value="고양이" style="ellipse;whiteSpace=wrap;html=1;align=center;" vertex="1" parent="1">
          <mxGeometry x="-175" y="1480" width="100" height="40" as="geometry" />
        </mxCell>
        <mxCell id="xfH-aFisu_lI2zTOAwG_-106" value="강아지" style="ellipse;whiteSpace=wrap;html=1;align=center;" vertex="1" parent="1">
          <mxGeometry x="-105" y="1400" width="100" height="40" as="geometry" />
        </mxCell>
        <mxCell id="xfH-aFisu_lI2zTOAwG_-107" value="타 사이트 링크" style="ellipse;whiteSpace=wrap;html=1;align=center;" vertex="1" parent="1">
          <mxGeometry x="-810" y="590" width="100" height="40" as="geometry" />
        </mxCell>
        <mxCell id="xfH-aFisu_lI2zTOAwG_-108" value="체크리스트" style="ellipse;whiteSpace=wrap;html=1;align=center;" vertex="1" parent="1">
          <mxGeometry x="-810" y="680" width="100" height="40" as="geometry" />
        </mxCell>
        <mxCell id="xfH-aFisu_lI2zTOAwG_-121" style="edgeStyle=orthogonalEdgeStyle;rounded=0;orthogonalLoop=1;jettySize=auto;html=1;" edge="1" parent="1" source="xfH-aFisu_lI2zTOAwG_-115" target="xfH-aFisu_lI2zTOAwG_-122">
          <mxGeometry relative="1" as="geometry">
            <mxPoint x="-430" y="720" as="targetPoint" />
          </mxGeometry>
        </mxCell>
        <mxCell id="xfH-aFisu_lI2zTOAwG_-115" value="공지사항" style="rounded=1;arcSize=10;whiteSpace=wrap;html=1;align=center;" vertex="1" parent="1">
          <mxGeometry x="-480" y="770" width="100" height="40" as="geometry" />
        </mxCell>
        <mxCell id="xfH-aFisu_lI2zTOAwG_-129" style="rounded=0;orthogonalLoop=1;jettySize=auto;html=1;" edge="1" parent="1" source="xfH-aFisu_lI2zTOAwG_-116" target="xfH-aFisu_lI2zTOAwG_-123">
          <mxGeometry relative="1" as="geometry" />
        </mxCell>
        <mxCell id="xfH-aFisu_lI2zTOAwG_-130" style="edgeStyle=orthogonalEdgeStyle;rounded=0;orthogonalLoop=1;jettySize=auto;html=1;entryX=0.5;entryY=1;entryDx=0;entryDy=0;" edge="1" parent="1" source="xfH-aFisu_lI2zTOAwG_-116" target="xfH-aFisu_lI2zTOAwG_-125">
          <mxGeometry relative="1" as="geometry" />
        </mxCell>
        <mxCell id="xfH-aFisu_lI2zTOAwG_-132" style="edgeStyle=orthogonalEdgeStyle;rounded=0;orthogonalLoop=1;jettySize=auto;html=1;" edge="1" parent="1" source="xfH-aFisu_lI2zTOAwG_-116" target="xfH-aFisu_lI2zTOAwG_-126">
          <mxGeometry relative="1" as="geometry" />
        </mxCell>
        <mxCell id="xfH-aFisu_lI2zTOAwG_-116" value="자유게시판" style="rounded=1;arcSize=10;whiteSpace=wrap;html=1;align=center;" vertex="1" parent="1">
          <mxGeometry x="-270" y="770" width="100" height="40" as="geometry" />
        </mxCell>
        <mxCell id="xfH-aFisu_lI2zTOAwG_-136" style="edgeStyle=orthogonalEdgeStyle;rounded=0;orthogonalLoop=1;jettySize=auto;html=1;entryX=0;entryY=0.5;entryDx=0;entryDy=0;" edge="1" parent="1" source="xfH-aFisu_lI2zTOAwG_-117" target="xfH-aFisu_lI2zTOAwG_-127">
          <mxGeometry relative="1" as="geometry" />
        </mxCell>
        <mxCell id="xfH-aFisu_lI2zTOAwG_-137" style="edgeStyle=orthogonalEdgeStyle;rounded=0;orthogonalLoop=1;jettySize=auto;html=1;entryX=0;entryY=0.5;entryDx=0;entryDy=0;" edge="1" parent="1" source="xfH-aFisu_lI2zTOAwG_-117" target="xfH-aFisu_lI2zTOAwG_-128">
          <mxGeometry relative="1" as="geometry" />
        </mxCell>
        <mxCell id="xfH-aFisu_lI2zTOAwG_-117" value="로그인" style="rounded=1;arcSize=10;whiteSpace=wrap;html=1;align=center;" vertex="1" parent="1">
          <mxGeometry x="-60" y="770" width="100" height="40" as="geometry" />
        </mxCell>
        <mxCell id="xfH-aFisu_lI2zTOAwG_-139" style="edgeStyle=orthogonalEdgeStyle;rounded=0;orthogonalLoop=1;jettySize=auto;html=1;entryX=1;entryY=0.5;entryDx=0;entryDy=0;" edge="1" parent="1" source="xfH-aFisu_lI2zTOAwG_-118" target="xfH-aFisu_lI2zTOAwG_-127">
          <mxGeometry relative="1" as="geometry" />
        </mxCell>
        <mxCell id="xfH-aFisu_lI2zTOAwG_-140" style="edgeStyle=orthogonalEdgeStyle;rounded=0;orthogonalLoop=1;jettySize=auto;html=1;entryX=1;entryY=0.5;entryDx=0;entryDy=0;" edge="1" parent="1" source="xfH-aFisu_lI2zTOAwG_-118" target="xfH-aFisu_lI2zTOAwG_-128">
          <mxGeometry relative="1" as="geometry" />
        </mxCell>
        <mxCell id="xfH-aFisu_lI2zTOAwG_-146" style="edgeStyle=orthogonalEdgeStyle;rounded=0;orthogonalLoop=1;jettySize=auto;html=1;entryX=0;entryY=0.5;entryDx=0;entryDy=0;" edge="1" parent="1" source="xfH-aFisu_lI2zTOAwG_-118" target="xfH-aFisu_lI2zTOAwG_-141">
          <mxGeometry relative="1" as="geometry" />
        </mxCell>
        <mxCell id="xfH-aFisu_lI2zTOAwG_-147" style="edgeStyle=orthogonalEdgeStyle;rounded=0;orthogonalLoop=1;jettySize=auto;html=1;entryX=0;entryY=0.5;entryDx=0;entryDy=0;" edge="1" parent="1" source="xfH-aFisu_lI2zTOAwG_-118" target="xfH-aFisu_lI2zTOAwG_-142">
          <mxGeometry relative="1" as="geometry" />
        </mxCell>
        <mxCell id="xfH-aFisu_lI2zTOAwG_-150" style="edgeStyle=orthogonalEdgeStyle;rounded=0;orthogonalLoop=1;jettySize=auto;html=1;entryX=0;entryY=0.5;entryDx=0;entryDy=0;" edge="1" parent="1" source="xfH-aFisu_lI2zTOAwG_-118" target="xfH-aFisu_lI2zTOAwG_-145">
          <mxGeometry relative="1" as="geometry" />
        </mxCell>
        <mxCell id="xfH-aFisu_lI2zTOAwG_-151" style="edgeStyle=orthogonalEdgeStyle;rounded=0;orthogonalLoop=1;jettySize=auto;html=1;entryX=0;entryY=0.5;entryDx=0;entryDy=0;" edge="1" parent="1" source="xfH-aFisu_lI2zTOAwG_-118" target="xfH-aFisu_lI2zTOAwG_-143">
          <mxGeometry relative="1" as="geometry" />
        </mxCell>
        <mxCell id="xfH-aFisu_lI2zTOAwG_-118" value="회원가입" style="rounded=1;arcSize=10;whiteSpace=wrap;html=1;align=center;" vertex="1" parent="1">
          <mxGeometry x="190" y="770" width="100" height="40" as="geometry" />
        </mxCell>
        <mxCell id="xfH-aFisu_lI2zTOAwG_-122" value="안내사항" style="ellipse;whiteSpace=wrap;html=1;align=center;" vertex="1" parent="1">
          <mxGeometry x="-480" y="660" width="100" height="40" as="geometry" />
        </mxCell>
        <mxCell id="xfH-aFisu_lI2zTOAwG_-123" value="조회수" style="ellipse;whiteSpace=wrap;html=1;align=center;" vertex="1" parent="1">
          <mxGeometry x="-430" y="600" width="100" height="40" as="geometry" />
        </mxCell>
        <mxCell id="xfH-aFisu_lI2zTOAwG_-124" value="일시" style="ellipse;whiteSpace=wrap;html=1;align=center;" vertex="1" parent="1">
          <mxGeometry x="-360" y="550" width="100" height="40" as="geometry" />
        </mxCell>
        <mxCell id="xfH-aFisu_lI2zTOAwG_-125" value="번호" style="ellipse;whiteSpace=wrap;html=1;align=center;" vertex="1" parent="1">
          <mxGeometry x="-270" y="510" width="100" height="40" as="geometry" />
        </mxCell>
        <mxCell id="xfH-aFisu_lI2zTOAwG_-126" value="제목" style="ellipse;whiteSpace=wrap;html=1;align=center;" vertex="1" parent="1">
          <mxGeometry x="-180" y="550" width="100" height="40" as="geometry" />
        </mxCell>
        <mxCell id="xfH-aFisu_lI2zTOAwG_-127" value="비밀번호" style="ellipse;whiteSpace=wrap;html=1;align=center;" vertex="1" parent="1">
          <mxGeometry x="30" y="620" width="100" height="40" as="geometry" />
        </mxCell>
        <mxCell id="xfH-aFisu_lI2zTOAwG_-128" value="아이디" style="ellipse;whiteSpace=wrap;html=1;align=center;" vertex="1" parent="1">
          <mxGeometry x="30" y="540" width="100" height="40" as="geometry" />
        </mxCell>
        <mxCell id="xfH-aFisu_lI2zTOAwG_-131" style="edgeStyle=orthogonalEdgeStyle;rounded=0;orthogonalLoop=1;jettySize=auto;html=1;entryX=0.6;entryY=1;entryDx=0;entryDy=0;entryPerimeter=0;" edge="1" parent="1" source="xfH-aFisu_lI2zTOAwG_-116" target="xfH-aFisu_lI2zTOAwG_-124">
          <mxGeometry relative="1" as="geometry" />
        </mxCell>
        <mxCell id="xfH-aFisu_lI2zTOAwG_-133" style="rounded=0;orthogonalLoop=1;jettySize=auto;html=1;entryX=0.37;entryY=1;entryDx=0;entryDy=0;entryPerimeter=0;" edge="1" parent="1" source="xfH-aFisu_lI2zTOAwG_-116" target="xfH-aFisu_lI2zTOAwG_-128">
          <mxGeometry relative="1" as="geometry" />
        </mxCell>
        <mxCell id="xfH-aFisu_lI2zTOAwG_-135" style="rounded=0;orthogonalLoop=1;jettySize=auto;html=1;entryX=0.34;entryY=1.025;entryDx=0;entryDy=0;entryPerimeter=0;" edge="1" parent="1" source="xfH-aFisu_lI2zTOAwG_-116" target="xfH-aFisu_lI2zTOAwG_-127">
          <mxGeometry relative="1" as="geometry" />
        </mxCell>
        <mxCell id="xfH-aFisu_lI2zTOAwG_-141" value="이름" style="ellipse;whiteSpace=wrap;html=1;align=center;" vertex="1" parent="1">
          <mxGeometry x="367.5" y="540" width="100" height="40" as="geometry" />
        </mxCell>
        <mxCell id="xfH-aFisu_lI2zTOAwG_-142" value="전화번호" style="ellipse;whiteSpace=wrap;html=1;align=center;" vertex="1" parent="1">
          <mxGeometry x="367.5" y="620" width="100" height="40" as="geometry" />
        </mxCell>
        <mxCell id="xfH-aFisu_lI2zTOAwG_-143" value="이메일" style="ellipse;whiteSpace=wrap;html=1;align=center;" vertex="1" parent="1">
          <mxGeometry x="367.5" y="700" width="100" height="40" as="geometry" />
        </mxCell>
        <mxCell id="xfH-aFisu_lI2zTOAwG_-144" value="주소" style="ellipse;whiteSpace=wrap;html=1;align=center;" vertex="1" parent="1">
          <mxGeometry x="367.5" y="780" width="100" height="40" as="geometry" />
        </mxCell>
        <mxCell id="xfH-aFisu_lI2zTOAwG_-145" value="생년원일" style="ellipse;whiteSpace=wrap;html=1;align=center;" vertex="1" parent="1">
          <mxGeometry x="367.5" y="870" width="100" height="40" as="geometry" />
        </mxCell>
        <mxCell id="xfH-aFisu_lI2zTOAwG_-149" style="edgeStyle=orthogonalEdgeStyle;rounded=0;orthogonalLoop=1;jettySize=auto;html=1;entryX=0.035;entryY=0.225;entryDx=0;entryDy=0;entryPerimeter=0;" edge="1" parent="1" source="xfH-aFisu_lI2zTOAwG_-118" target="xfH-aFisu_lI2zTOAwG_-144">
          <mxGeometry relative="1" as="geometry" />
        </mxCell>
        <mxCell id="xfH-aFisu_lI2zTOAwG_-152" value="먹이" style="ellipse;whiteSpace=wrap;html=1;align=center;" vertex="1" parent="1">
          <mxGeometry x="-710" y="1770" width="100" height="40" as="geometry" />
        </mxCell>
        <mxCell id="xfH-aFisu_lI2zTOAwG_-153" value="음식" style="ellipse;whiteSpace=wrap;html=1;align=center;" vertex="1" parent="1">
          <mxGeometry x="-970" y="1770" width="100" height="40" as="geometry" />
        </mxCell>
        <mxCell id="xfH-aFisu_lI2zTOAwG_-154" value="주의사항" style="ellipse;whiteSpace=wrap;html=1;align=center;" vertex="1" parent="1">
          <mxGeometry x="-440" y="1770" width="100" height="40" as="geometry" />
        </mxCell>
        <mxCell id="xfH-aFisu_lI2zTOAwG_-155" value="아플 때 특징" style="ellipse;whiteSpace=wrap;html=1;align=center;" vertex="1" parent="1">
          <mxGeometry x="-175" y="1770" width="100" height="40" as="geometry" />
        </mxCell>
        <mxCell id="xfH-aFisu_lI2zTOAwG_-156" value="사육조건" style="ellipse;whiteSpace=wrap;html=1;align=center;" vertex="1" parent="1">
          <mxGeometry x="-1250" y="1770" width="100" height="40" as="geometry" />
        </mxCell>
        <mxCell id="xfH-aFisu_lI2zTOAwG_-157" value="Relationship" style="shape=rhombus;perimeter=rhombusPerimeter;whiteSpace=wrap;html=1;align=center;" vertex="1" parent="1">
          <mxGeometry x="-1260" y="1270" width="120" height="60" as="geometry" />
        </mxCell>
        <mxCell id="xfH-aFisu_lI2zTOAwG_-158" value="Relationship" style="shape=rhombus;perimeter=rhombusPerimeter;whiteSpace=wrap;html=1;align=center;" vertex="1" parent="1">
          <mxGeometry x="-980" y="1270" width="120" height="60" as="geometry" />
        </mxCell>
        <mxCell id="xfH-aFisu_lI2zTOAwG_-159" value="Relationship" style="shape=rhombus;perimeter=rhombusPerimeter;whiteSpace=wrap;html=1;align=center;" vertex="1" parent="1">
          <mxGeometry x="-720" y="1270" width="120" height="60" as="geometry" />
        </mxCell>
        <mxCell id="xfH-aFisu_lI2zTOAwG_-160" value="Relationship" style="shape=rhombus;perimeter=rhombusPerimeter;whiteSpace=wrap;html=1;align=center;" vertex="1" parent="1">
          <mxGeometry x="-450" y="1270" width="120" height="60" as="geometry" />
        </mxCell>
        <mxCell id="xfH-aFisu_lI2zTOAwG_-161" value="Relationship" style="shape=rhombus;perimeter=rhombusPerimeter;whiteSpace=wrap;html=1;align=center;" vertex="1" parent="1">
          <mxGeometry x="-180" y="1270" width="120" height="60" as="geometry" />
        </mxCell>
        <mxCell id="xfH-aFisu_lI2zTOAwG_-171" value="" style="edgeStyle=orthogonalEdgeStyle;rounded=0;orthogonalLoop=1;jettySize=auto;html=1;" edge="1" parent="1" source="xfH-aFisu_lI2zTOAwG_-162" target="xfH-aFisu_lI2zTOAwG_-161">
          <mxGeometry relative="1" as="geometry" />
        </mxCell>
        <mxCell id="xfH-aFisu_lI2zTOAwG_-162" value="포유류류" style="rounded=1;arcSize=10;whiteSpace=wrap;html=1;align=center;" vertex="1" parent="1">
          <mxGeometry x="-170" y="1200" width="100" height="40" as="geometry" />
        </mxCell>
        <mxCell id="xfH-aFisu_lI2zTOAwG_-170" value="" style="edgeStyle=orthogonalEdgeStyle;rounded=0;orthogonalLoop=1;jettySize=auto;html=1;" edge="1" parent="1" source="xfH-aFisu_lI2zTOAwG_-163" target="xfH-aFisu_lI2zTOAwG_-160">
          <mxGeometry relative="1" as="geometry" />
        </mxCell>
        <mxCell id="xfH-aFisu_lI2zTOAwG_-163" value="파충류" style="rounded=1;arcSize=10;whiteSpace=wrap;html=1;align=center;" vertex="1" parent="1">
          <mxGeometry x="-440" y="1200" width="100" height="40" as="geometry" />
        </mxCell>
        <mxCell id="xfH-aFisu_lI2zTOAwG_-169" value="" style="edgeStyle=orthogonalEdgeStyle;rounded=0;orthogonalLoop=1;jettySize=auto;html=1;" edge="1" parent="1" source="xfH-aFisu_lI2zTOAwG_-164" target="xfH-aFisu_lI2zTOAwG_-159">
          <mxGeometry relative="1" as="geometry" />
        </mxCell>
        <mxCell id="xfH-aFisu_lI2zTOAwG_-164" value="조류" style="rounded=1;arcSize=10;whiteSpace=wrap;html=1;align=center;" vertex="1" parent="1">
          <mxGeometry x="-710" y="1190" width="100" height="40" as="geometry" />
        </mxCell>
        <mxCell id="xfH-aFisu_lI2zTOAwG_-168" value="" style="edgeStyle=orthogonalEdgeStyle;rounded=0;orthogonalLoop=1;jettySize=auto;html=1;" edge="1" parent="1" source="xfH-aFisu_lI2zTOAwG_-165" target="xfH-aFisu_lI2zTOAwG_-158">
          <mxGeometry relative="1" as="geometry" />
        </mxCell>
        <mxCell id="xfH-aFisu_lI2zTOAwG_-165" value="어류" style="rounded=1;arcSize=10;whiteSpace=wrap;html=1;align=center;" vertex="1" parent="1">
          <mxGeometry x="-970" y="1190" width="100" height="40" as="geometry" />
        </mxCell>
        <mxCell id="xfH-aFisu_lI2zTOAwG_-167" value="" style="edgeStyle=orthogonalEdgeStyle;rounded=0;orthogonalLoop=1;jettySize=auto;html=1;" edge="1" parent="1" source="xfH-aFisu_lI2zTOAwG_-166" target="xfH-aFisu_lI2zTOAwG_-157">
          <mxGeometry relative="1" as="geometry" />
        </mxCell>
        <mxCell id="xfH-aFisu_lI2zTOAwG_-166" value="설치류" style="rounded=1;arcSize=10;whiteSpace=wrap;html=1;align=center;" vertex="1" parent="1">
          <mxGeometry x="-1250" y="1180" width="100" height="40" as="geometry" />
        </mxCell>
      </root>
    </mxGraphModel>
  </diagram>
</mxfile>
